<?xml version="1.0" encoding="iso-8859-1"?>
<!-- Generator: Adobe Illustrator 19.0.0, SVG Export Plug-In . SVG Version: 6.00 Build 0)  -->
<svg version="1.1" id="Layer_1" xmlns="http://www.w3.org/2000/svg" xmlns:xlink="http://www.w3.org/1999/xlink" x="0px" y="0px"
	 viewBox="0 0 472 472" style="enable-background:new 0 0 472 472;" xml:space="preserve">
<g>
	<circle style="fill:#70C1B3;" cx="392" cy="112" r="40"/>
	<path style="fill:#70C1B3;" d="M336,168L336,168c-17.672,0-32,14.328-32,32v56c0,17.672,14.328,32,32,32h72
		c17.672,0,32-14.328,32-32l0,0H336v-56"/>
	<polyline style="fill:#70C1B3;" points="336,288 336,344 296,400 328,424 376,352 376,288 	"/>
	<polyline style="fill:#70C1B3;" points="416,288 456,368 456,424 416,424 416,368 376,288 	"/>
</g>
<rect x="336" y="152" style="fill:#F4D35E;" width="136" height="104"/>
<g>
	<rect x="392" y="224" style="fill:#EE964B;" width="16" height="32"/>
	<path style="fill:#EE964B;" d="M284,80H144H96H72v160h132c11.048,0,20-8.952,20-20s-8.952-20-20-20c11.048,0,20-8.952,20-20
		s-8.952-20-20-20c11.048,0,20-8.952,20-20s-8.952-20-20-20h80c11.048,0,20-8.952,20-20S295.048,80,284,80z"/>
</g>
<path style="fill:#3F3F3F;" d="M72,80h40c17.672,0,32,14.328,32,32v48c0,11.048-8.952,20-20,20l0,0c-11.048,0-20-8.952-20-20v-40H72
	V80z"/>
<rect x="40" y="80" style="fill:#F4D35E;" width="32" height="160"/>
<rect y="80" style="fill:#EE964B;" width="40" height="160"/>
<g>
	<rect x="256" y="416" style="fill:#F4D35E;" width="16" height="16"/>
	<rect x="224" y="416" style="fill:#F4D35E;" width="16" height="16"/>
	<rect x="192" y="416" style="fill:#F4D35E;" width="16" height="16"/>
	<rect x="336" y="40" style="fill:#F4D35E;" width="16" height="24"/>
</g>
<g>
</g>
<g>
</g>
<g>
</g>
<g>
</g>
<g>
</g>
<g>
</g>
<g>
</g>
<g>
</g>
<g>
</g>
<g>
</g>
<g>
</g>
<g>
</g>
<g>
</g>
<g>
</g>
<g>
</g>
</svg>
